<?xml version="1.0" encoding="utf-8"?>
<!-- Generator: Adobe Illustrator 21.1.0, SVG Export Plug-In . SVG Version: 6.00 Build 0)  -->
<svg version="1.1" id="Layer_1" xmlns="http://www.w3.org/2000/svg" xmlns:xlink="http://www.w3.org/1999/xlink" x="0px" y="0px"
	 viewBox="0 0 486 44" style="enable-background:new 0 0 486 44;" xml:space="preserve">
<style type="text/css">
	.st0{fill:#392F0E;}
</style>
<g>
	<path class="st0" d="M1,29.6l7.1-0.4c0,4.6,3.6,7.3,8.4,7.3c4.2,0,8.1-2.1,8.1-6.5c0-5.9-5.4-6.1-10.1-6.1v-5.7
		c7,0,7.9-2.1,7.9-5.3c0-3.6-2.6-5.3-6-5.3c-3.8,0-6.3,2.2-6.4,5.9l-7-0.5C3,5.1,9.1,0.6,16.3,0.6c6.9,0,13.2,4.2,13.2,11.3
		c0,3.3-1.3,6.6-5.4,8.5c5.5,1.5,7.6,5.5,7.6,10c0,8.4-7.3,12.8-15.4,12.8C8.2,43.2,1,38.7,1,29.6z"/>
	<path class="st0" d="M84.7,28.8c0,8-6.8,14.4-15.1,14.4c-8.3,0-15.1-6.5-15.1-14.4c0-2.9,0.9-5.4,2.3-7.7L69.2,1.2h8.5l-8.3,13.1
		c2,0,3.9,0.3,5.7,1C80.6,17.4,84.7,22.5,84.7,28.8z M77.4,28.8c0-4.1-3.5-7.6-7.8-7.6c-4.4,0-7.9,3.4-7.9,7.6s3.5,7.6,7.9,7.6
		C73.9,36.3,77.4,32.9,77.4,28.8z"/>
	<path class="st0" d="M137.3,28.6c0,7.9-6.9,14.7-15.2,14.7c-7.4,0-13.4-5.6-14.9-12.6l6.9-1.9c0.8,3.8,3,7.8,8.1,7.8
		c4.5,0,7.6-4,7.6-8c0-4.1-2.8-7.6-7.6-7.6c-2.7,0-5.5,1.4-7,3.8l-6.7-1.7l4-21.8h23v6.8h-17.1l-1.5,7.7c2.3-1.2,4.3-1.6,6.4-1.6
		C130.9,14.2,137.3,20.7,137.3,28.6z"/>
	<path class="st0" d="M205.1,1.2v41.4H198V11.7L187.7,39h-7.2l-10.3-27.3v30.9h-7.1V1.2h10l11,29.4l11-29.4H205.1z"/>
	<path class="st0" d="M230.9,21.9c0-11.3,6.3-21.3,20-21.3s20,10,20,21.3s-6.3,21.3-20,21.3S230.9,33.2,230.9,21.9z M263,21.9
		c0-7.8-3.3-14.7-12.1-14.7s-12.1,6.9-12.1,14.7c0,7.8,3.3,14.7,12.1,14.7S263,29.8,263,21.9z"/>
	<path class="st0" d="M296.6,1.2h12c14.1,0,21.5,7.6,21.5,21c0,12.9-7.7,20.4-21.6,20.4h-12V1.2z M307.8,35.8
		c9.1,0,14.9-3.5,14.9-13.9c0-9.8-4-13.9-14.2-13.9H304v27.7H307.8z"/>
	<path class="st0" d="M355.8,1.2h27.5v6.8h-20.1v10.5H382v6.8h-18.7v10.3h20.1v7h-27.5V1.2z"/>
	<path class="st0" d="M410.3,1.2h7.4v34.4h17.7v7h-25.1V1.2z"/>
	<path class="st0" d="M455.4,31l7.4-1.9c0.5,5.2,4.2,7.4,8.6,7.4c4.4,0,6.8-2.3,6.8-5.3c0-8.6-20-5.7-20-19.2
		c0-7.3,5.9-11.4,12.9-11.4c5.1,0,9.8,2.2,12.6,7.3l-6.2,3.8c-1.4-2.8-3.9-4.4-6.7-4.4c-2.9,0-5.2,1.8-5.2,4.4c0,7.8,20,5.2,20,18.9
		c0,7.8-6.5,12.5-14.4,12.5C464,43.1,456.8,39.1,455.4,31z"/>
</g>
</svg>
